<svg width="21" height="22" viewBox="0 0 21 22" fill="none" xmlns="http://www.w3.org/2000/svg">
<path d="M10.4971 21.4927C4.69954 21.4927 0 16.7931 0 10.9956C0 5.19807 4.69954 0.498535 10.4971 0.498535C16.2946 0.498535 20.9941 5.19807 20.9941 10.9956C20.9941 16.7931 16.2946 21.4927 10.4971 21.4927ZM10.4971 19.3933C12.7243 19.3933 14.8602 18.5085 16.4351 16.9336C18.01 15.3588 18.8947 13.2228 18.8947 10.9956C18.8947 8.76841 18.01 6.63243 16.4351 5.05757C14.8602 3.4827 12.7243 2.59795 10.4971 2.59795C8.26987 2.59795 6.1339 3.4827 4.55903 5.05757C2.98416 6.63243 2.09941 8.76841 2.09941 10.9956C2.09941 13.2228 2.98416 15.3588 4.55903 16.9336C6.1339 18.5085 8.26987 19.3933 10.4971 19.3933ZM9.45051 15.1944L4.99661 10.7405L6.48089 9.25624L9.45051 12.2259L15.3877 6.28767L16.873 7.77195L9.45051 15.1944Z" fill="#F4BE40" fill-opacity="0.4"/>
</svg>
