<svg width="26" height="20" viewBox="0 0 26 20" fill="none" xmlns="http://www.w3.org/2000/svg">
<path d="M0 0.536621V1.52939V18.1772V19.17H26V18.1772V1.52939V0.536621H0ZM15.8708 10.0977L13.5109 12.4689C13.224 12.7354 12.7751 12.735 12.5004 12.4802L10.1287 10.0977L10.1495 10.0773L1.58037 1.40329H24.4253L15.85 10.0778L15.8708 10.0977ZM8.89373 10.0843L0.866667 17.8071V2.01992L8.89373 10.0843ZM9.50473 10.6983L11.898 13.1029C12.2053 13.3893 12.5996 13.5332 12.9957 13.5332C13.3956 13.5332 13.7973 13.3863 14.1141 13.0912L16.4957 10.6983L24.3984 18.3033H1.59727L9.50473 10.6983ZM17.1067 10.0847L25.1333 2.01949V17.8071L17.1067 10.0847Z" fill="white"/>
</svg>
