<svg width="26" height="37" viewBox="0 0 26 37" fill="none" xmlns="http://www.w3.org/2000/svg">
<path d="M14.3989 33.476L12.5992 35.8303L10.8111 33.4774L10.8095 33.4753C10.2895 32.7967 7.73037 29.4105 5.30427 25.4024C4.09099 23.398 2.91853 21.2504 2.05123 19.2164C1.17795 17.1683 0.641046 15.2965 0.641046 13.825C0.641046 10.092 1.85829 7.02185 3.93337 4.88839C6.00694 2.75648 8.98433 1.51092 12.6005 1.51092C16.2167 1.51092 19.1941 2.75648 21.2676 4.88832C23.3426 7.02171 24.5597 10.0917 24.5594 13.8244V13.8244C24.5594 15.1897 24.1032 16.8956 23.3383 18.7759C22.578 20.645 21.5345 22.635 20.408 24.5528C18.1561 28.3865 15.6014 31.8841 14.4003 33.4743C14.3998 33.4749 14.3994 33.4755 14.3989 33.476ZM12.6005 5.3305C7.86036 5.3305 4.0019 9.17454 4.0019 13.9043C4.0019 18.6347 7.86039 22.4782 12.6005 22.4782C17.3407 22.4782 21.1991 18.6342 21.1991 13.9043C21.1991 9.17454 17.3407 5.3305 12.6005 5.3305Z" stroke="white" stroke-width="1.28209"/>
</svg>
